<mxfile host="app.diagrams.net" modified="2023-05-24T20:52:29.617Z" agent="Mozilla/5.0 (X11; Linux x86_64) AppleWebKit/537.36 (KHTML, like Gecko) Chrome/113.0.0.0 Safari/537.36" etag="OwtNkXvhG44qrMvAj9dD" version="21.3.3" type="device">
  <diagram name="Page-1" id="ZrCCHp6g5IzTZTbPb78C">
    <mxGraphModel dx="1654" dy="415" grid="1" gridSize="10" guides="1" tooltips="1" connect="1" arrows="1" fold="1" page="1" pageScale="1" pageWidth="827" pageHeight="1169" math="1" shadow="0">
      <root>
        <mxCell id="0" />
        <mxCell id="1" parent="0" />
        <mxCell id="F8uVB2hkuiV7ukGDuRI8-5" style="edgeStyle=none;rounded=0;orthogonalLoop=1;jettySize=auto;html=1;entryX=0;entryY=0.5;entryDx=0;entryDy=0;exitX=1;exitY=0.5;exitDx=0;exitDy=0;" edge="1" parent="1" source="F8uVB2hkuiV7ukGDuRI8-1" target="F8uVB2hkuiV7ukGDuRI8-3">
          <mxGeometry relative="1" as="geometry" />
        </mxCell>
        <mxCell id="F8uVB2hkuiV7ukGDuRI8-24" style="edgeStyle=none;rounded=0;orthogonalLoop=1;jettySize=auto;html=1;strokeWidth=3;" edge="1" parent="1" source="F8uVB2hkuiV7ukGDuRI8-1">
          <mxGeometry relative="1" as="geometry">
            <mxPoint x="-30" y="180" as="targetPoint" />
          </mxGeometry>
        </mxCell>
        <mxCell id="F8uVB2hkuiV7ukGDuRI8-26" value="\(\frac{dz}{dx_1}\)" style="edgeLabel;html=1;align=center;verticalAlign=middle;resizable=0;points=[];fontSize=20;" vertex="1" connectable="0" parent="F8uVB2hkuiV7ukGDuRI8-24">
          <mxGeometry x="0.3095" y="3" relative="1" as="geometry">
            <mxPoint x="-54" y="-3" as="offset" />
          </mxGeometry>
        </mxCell>
        <mxCell id="F8uVB2hkuiV7ukGDuRI8-1" value="\(x_1\)" style="ellipse;whiteSpace=wrap;html=1;aspect=fixed;fillColor=#f8cecc;strokeColor=#b85450;" vertex="1" parent="1">
          <mxGeometry x="40" y="160" width="40" height="40" as="geometry" />
        </mxCell>
        <mxCell id="F8uVB2hkuiV7ukGDuRI8-6" style="edgeStyle=none;rounded=0;orthogonalLoop=1;jettySize=auto;html=1;exitX=1;exitY=0.5;exitDx=0;exitDy=0;entryX=0;entryY=0.5;entryDx=0;entryDy=0;" edge="1" parent="1" source="F8uVB2hkuiV7ukGDuRI8-2" target="F8uVB2hkuiV7ukGDuRI8-3">
          <mxGeometry relative="1" as="geometry">
            <mxPoint x="280" y="160" as="targetPoint" />
          </mxGeometry>
        </mxCell>
        <mxCell id="F8uVB2hkuiV7ukGDuRI8-7" style="edgeStyle=none;rounded=0;orthogonalLoop=1;jettySize=auto;html=1;entryX=0;entryY=0.5;entryDx=0;entryDy=0;exitX=1;exitY=0.5;exitDx=0;exitDy=0;" edge="1" parent="1" source="F8uVB2hkuiV7ukGDuRI8-2" target="F8uVB2hkuiV7ukGDuRI8-4">
          <mxGeometry relative="1" as="geometry" />
        </mxCell>
        <mxCell id="F8uVB2hkuiV7ukGDuRI8-25" style="edgeStyle=none;rounded=0;orthogonalLoop=1;jettySize=auto;html=1;strokeWidth=3;" edge="1" parent="1" source="F8uVB2hkuiV7ukGDuRI8-2">
          <mxGeometry relative="1" as="geometry">
            <mxPoint x="-30" y="260" as="targetPoint" />
          </mxGeometry>
        </mxCell>
        <mxCell id="F8uVB2hkuiV7ukGDuRI8-27" value="\(\frac{dz}{dx_1}\)" style="edgeLabel;html=1;align=center;verticalAlign=middle;resizable=0;points=[];fontSize=20;" vertex="1" connectable="0" parent="F8uVB2hkuiV7ukGDuRI8-25">
          <mxGeometry x="-0.3333" y="1" relative="1" as="geometry">
            <mxPoint x="-77" as="offset" />
          </mxGeometry>
        </mxCell>
        <mxCell id="F8uVB2hkuiV7ukGDuRI8-2" value="\(x_2\)" style="ellipse;whiteSpace=wrap;html=1;aspect=fixed;fillColor=#f8cecc;strokeColor=#b85450;" vertex="1" parent="1">
          <mxGeometry x="40" y="240" width="40" height="40" as="geometry" />
        </mxCell>
        <mxCell id="F8uVB2hkuiV7ukGDuRI8-9" style="edgeStyle=none;rounded=0;orthogonalLoop=1;jettySize=auto;html=1;entryX=0;entryY=0.5;entryDx=0;entryDy=0;exitX=1;exitY=0.5;exitDx=0;exitDy=0;" edge="1" parent="1" source="F8uVB2hkuiV7ukGDuRI8-3" target="F8uVB2hkuiV7ukGDuRI8-8">
          <mxGeometry relative="1" as="geometry" />
        </mxCell>
        <mxCell id="F8uVB2hkuiV7ukGDuRI8-17" style="edgeStyle=none;rounded=0;orthogonalLoop=1;jettySize=auto;html=1;entryX=0.5;entryY=0;entryDx=0;entryDy=0;exitX=0;exitY=0;exitDx=0;exitDy=0;strokeColor=#FF8000;strokeWidth=3;" edge="1" parent="1" source="F8uVB2hkuiV7ukGDuRI8-3" target="F8uVB2hkuiV7ukGDuRI8-1">
          <mxGeometry relative="1" as="geometry" />
        </mxCell>
        <mxCell id="F8uVB2hkuiV7ukGDuRI8-19" value="\(\frac{dz}{dy_1}\frac{dy_1}{dx_1}=(1-e^{y_2})\cdot(2x_1e^{x_2})\)" style="edgeLabel;html=1;align=center;verticalAlign=middle;resizable=0;points=[];rotation=333;fontColor=#FF8000;fontSize=14;" vertex="1" connectable="0" parent="F8uVB2hkuiV7ukGDuRI8-17">
          <mxGeometry x="0.2511" y="-1" relative="1" as="geometry">
            <mxPoint x="22" y="-39" as="offset" />
          </mxGeometry>
        </mxCell>
        <mxCell id="F8uVB2hkuiV7ukGDuRI8-20" style="edgeStyle=none;rounded=0;orthogonalLoop=1;jettySize=auto;html=1;entryX=1;entryY=0.5;entryDx=0;entryDy=0;strokeColor=#FF8000;strokeWidth=3;" edge="1" parent="1" source="F8uVB2hkuiV7ukGDuRI8-3" target="F8uVB2hkuiV7ukGDuRI8-2">
          <mxGeometry relative="1" as="geometry" />
        </mxCell>
        <mxCell id="F8uVB2hkuiV7ukGDuRI8-21" value="\(\frac{dz}{dy_1}\frac{dy_1}{dx_2}=(1-e^{y_2})\cdot(x_1^2e^{x_2})\)" style="edgeLabel;html=1;align=center;verticalAlign=middle;resizable=0;points=[];fontColor=#FF8000;rotation=321;fontSize=14;" vertex="1" connectable="0" parent="F8uVB2hkuiV7ukGDuRI8-20">
          <mxGeometry x="-0.227" y="1" relative="1" as="geometry">
            <mxPoint x="3" y="24" as="offset" />
          </mxGeometry>
        </mxCell>
        <mxCell id="F8uVB2hkuiV7ukGDuRI8-3" value="\(y_1=x_1^2\cdot e^{x_2}\)" style="ellipse;whiteSpace=wrap;html=1;aspect=fixed;fillColor=#d5e8d4;strokeColor=#82b366;" vertex="1" parent="1">
          <mxGeometry x="260" y="40" width="80" height="80" as="geometry" />
        </mxCell>
        <mxCell id="F8uVB2hkuiV7ukGDuRI8-10" style="edgeStyle=none;rounded=0;orthogonalLoop=1;jettySize=auto;html=1;exitX=1;exitY=0.5;exitDx=0;exitDy=0;entryX=0;entryY=0.5;entryDx=0;entryDy=0;" edge="1" parent="1" source="F8uVB2hkuiV7ukGDuRI8-4" target="F8uVB2hkuiV7ukGDuRI8-8">
          <mxGeometry relative="1" as="geometry">
            <mxPoint x="400" y="220" as="targetPoint" />
          </mxGeometry>
        </mxCell>
        <mxCell id="F8uVB2hkuiV7ukGDuRI8-22" style="edgeStyle=none;rounded=0;orthogonalLoop=1;jettySize=auto;html=1;entryX=0.5;entryY=1;entryDx=0;entryDy=0;exitX=0.5;exitY=1;exitDx=0;exitDy=0;strokeColor=#00CC00;strokeWidth=3;" edge="1" parent="1" source="F8uVB2hkuiV7ukGDuRI8-4" target="F8uVB2hkuiV7ukGDuRI8-2">
          <mxGeometry relative="1" as="geometry" />
        </mxCell>
        <mxCell id="F8uVB2hkuiV7ukGDuRI8-23" value="\(\frac{dz}{dy_2}\frac{dy_2}{dx_2}=-y_1e^{y_2}\cdot(3x_2^2)\)" style="edgeLabel;html=1;align=center;verticalAlign=middle;resizable=0;points=[];rotation=14;fontColor=#00CC00;fontSize=14;" vertex="1" connectable="0" parent="F8uVB2hkuiV7ukGDuRI8-22">
          <mxGeometry x="-0.1458" y="1" relative="1" as="geometry">
            <mxPoint x="-27" y="15" as="offset" />
          </mxGeometry>
        </mxCell>
        <mxCell id="F8uVB2hkuiV7ukGDuRI8-4" value="\(y_2=x_2^3\)" style="ellipse;whiteSpace=wrap;html=1;aspect=fixed;fillColor=#d5e8d4;strokeColor=#82b366;" vertex="1" parent="1">
          <mxGeometry x="260" y="260" width="80" height="80" as="geometry" />
        </mxCell>
        <mxCell id="F8uVB2hkuiV7ukGDuRI8-11" style="edgeStyle=none;rounded=0;orthogonalLoop=1;jettySize=auto;html=1;" edge="1" parent="1" source="F8uVB2hkuiV7ukGDuRI8-8">
          <mxGeometry relative="1" as="geometry">
            <mxPoint x="610" y="170" as="targetPoint" />
          </mxGeometry>
        </mxCell>
        <mxCell id="F8uVB2hkuiV7ukGDuRI8-13" style="edgeStyle=none;rounded=0;orthogonalLoop=1;jettySize=auto;html=1;entryX=1;entryY=0;entryDx=0;entryDy=0;exitX=0.5;exitY=0;exitDx=0;exitDy=0;strokeColor=#0000FF;strokeWidth=3;" edge="1" parent="1" source="F8uVB2hkuiV7ukGDuRI8-8" target="F8uVB2hkuiV7ukGDuRI8-3">
          <mxGeometry relative="1" as="geometry" />
        </mxCell>
        <mxCell id="F8uVB2hkuiV7ukGDuRI8-14" value="&lt;b&gt;\(\frac{dz}{dy_1}=(1-e^{y_2})\)&lt;/b&gt;" style="edgeLabel;html=1;align=center;verticalAlign=middle;resizable=0;points=[];rotation=23;fontColor=#0000FF;fontSize=14;" vertex="1" connectable="0" parent="F8uVB2hkuiV7ukGDuRI8-13">
          <mxGeometry x="0.3494" y="2" relative="1" as="geometry">
            <mxPoint x="50" y="-6" as="offset" />
          </mxGeometry>
        </mxCell>
        <mxCell id="F8uVB2hkuiV7ukGDuRI8-15" style="edgeStyle=none;rounded=0;orthogonalLoop=1;jettySize=auto;html=1;entryX=1;entryY=1;entryDx=0;entryDy=0;exitX=0.5;exitY=1;exitDx=0;exitDy=0;strokeColor=#FF0000;strokeWidth=3;" edge="1" parent="1" source="F8uVB2hkuiV7ukGDuRI8-8" target="F8uVB2hkuiV7ukGDuRI8-4">
          <mxGeometry relative="1" as="geometry" />
        </mxCell>
        <mxCell id="F8uVB2hkuiV7ukGDuRI8-16" value="\(\frac{dz}{dy_2}=-y_1e^{y_2}\)" style="edgeLabel;html=1;align=center;verticalAlign=middle;resizable=0;points=[];rotation=329;fontSize=14;fontColor=#FF0000;fontStyle=1;spacing=4;spacingTop=0;labelBorderColor=none;" vertex="1" connectable="0" parent="F8uVB2hkuiV7ukGDuRI8-15">
          <mxGeometry x="-0.2735" y="2" relative="1" as="geometry">
            <mxPoint x="11" y="16" as="offset" />
          </mxGeometry>
        </mxCell>
        <mxCell id="F8uVB2hkuiV7ukGDuRI8-8" value="\(z=y_1(1-e^{y_2})\)" style="ellipse;whiteSpace=wrap;html=1;aspect=fixed;fillColor=#dae8fc;strokeColor=#6c8ebf;" vertex="1" parent="1">
          <mxGeometry x="440" y="120" width="100" height="100" as="geometry" />
        </mxCell>
      </root>
    </mxGraphModel>
  </diagram>
</mxfile>
